<?xml version="1.0" encoding="utf-8"?>
<!-- Generator: Adobe Illustrator 19.2.1, SVG Export Plug-In . SVG Version: 6.00 Build 0)  -->
<svg version="1.1" id="Capa_1" xmlns="http://www.w3.org/2000/svg" xmlns:xlink="http://www.w3.org/1999/xlink" x="0px" y="0px"
	 viewBox="0 0 24 24" style="enable-background:new 0 0 24 24;" xml:space="preserve">
<style type="text/css">
	.st0{fill:#0D1324;}
</style>
<g>
	<path id="svg_1" class="st0" d="M12,0.2C5.4,0.2,0.1,5.5,0.1,12S5.4,23.9,12,23.9c0.8,0,1.6-0.1,2.3-0.2c-0.3-0.1-0.3-1.2,0-1.9
		c0.3-0.7,1.4-2.5,0.3-3.1s-0.8-0.9-1.4-1.5s-0.4-0.8-0.4-1c-0.1-0.6,0.6-1.5,0.6-1.6s0-0.4,0-0.5s-0.5-0.4-0.6-0.4
		s-0.2,0.2-0.3,0.2c-0.2,0-0.9-0.4-1-0.5c-0.2-0.1-0.2-0.4-0.4-0.6s-0.2,0-0.6-0.2c-0.3-0.1-1.4-0.5-2.2-0.8S7.5,11,7.5,10.7
		S7,9.9,6.8,9.6C6.6,9.2,6.6,8.7,6.5,8.8s0.4,1.3,0.3,1.4S6.6,9.9,6.3,9.6S6.6,9.4,5.8,8S6,5.8,6.1,5s0.6,0.3,0.3-0.2s0-1.5-0.2-1.9
		S4.7,3.3,4.7,3.3c0-0.4,1.2-1,2-1.5s1.3-0.1,2,0.1C9.3,2.1,9.3,2,9.1,1.8s0.1-0.3,0.6-0.2c0.5,0.1,0.6,0.7,1.4,0.6
		c0.8-0.1,0.1,0.2,0.2,0.3S11.2,2.7,10.7,3s0,0.3,0.9,1s0.6-0.4,0.5-0.9S12.8,3,12.8,3c0.6,0.4,0.5,0,0.9,0.1s1.5,1.1,1.5,1.1
		c-1.4,0.8-0.5,0.8-0.3,1s-0.5,0.5-0.5,0.5c-0.3-0.3-0.3,0-0.5,0.1s0,0.4,0,0.4c-1,0.2-0.7,1.2-0.7,1.4s-0.6,0.6-0.8,1
		c-0.2,0.3,0.4,1.1,0.1,1.1c-0.3,0-0.6-1.1-2.2-0.7c-0.5,0.1-1.6,0.7-1,1.8s1.5-0.3,1.9-0.2s-0.1,0.9,0,0.9s0.9,0,1,1
		s1.3,0.9,1.6,0.9s1.2-0.7,1.3-0.8c0.1,0,0.6-0.5,1.8,0.2c1.1,0.6,1.7,0.5,2.1,0.8s0.1,0.8,0.5,1s1.8-0.1,2.2,0.5s-1.5,3.6-2.1,3.9
		s-0.8,1.1-1.4,1.5C17.6,21,16.8,21.6,16,22c-0.7,0.4-0.8,1.1-1.1,1.4c5.3-1.2,9.3-5.9,9.3-11.6C23.9,5.5,18.6,0.2,12,0.2z
		 M14.8,11.3c-0.2,0-0.5,0.3-1.3-0.1c-0.8-0.5-1.4-0.4-1.5-0.5c0,0-0.1-0.2,0.3-0.2c0.7-0.1,1.7,0.7,1.9,0.7s0.3-0.2,0.7-0.1
		C15.2,11.2,14.9,11.3,14.8,11.3z M10.9,1.3c-0.1-0.1,0.1-0.1,0.2-0.2c0.1-0.1,0-0.2,0.1-0.2c0.2-0.2,1-0.4,0.9,0.1
		C11.8,1.4,11,1.4,10.9,1.3z M13,2.9c-0.3,0-1-0.1-0.8-0.2C12.6,2.2,11.9,2,11.5,2s-0.6-0.3-0.4-0.3c0.2,0,1,0,1.2,0.1
		c0.1,0.1,0.9,0.4,0.9,0.6C13.3,2.7,13.3,2.9,13,2.9z M15.5,2.8c-0.2,0.2-1.4-0.7-1.6-0.9c-1-0.8-1.5-0.6-1.7-0.7
		C12,1.1,12,0.9,12.3,0.6s1.2,0.1,1.7,0.2s1.1,0.5,1.1,0.9C15.2,2.2,15.7,2.6,15.5,2.8z"/>
</g>
</svg>
