<?xml version="1.0" encoding="utf-8"?>
<!-- Generator: Adobe Illustrator 19.2.1, SVG Export Plug-In . SVG Version: 6.00 Build 0)  -->
<svg version="1.1" id="Capa_1" xmlns="http://www.w3.org/2000/svg" xmlns:xlink="http://www.w3.org/1999/xlink" x="0px" y="0px"
	 viewBox="0 0 24 24" style="enable-background:new 0 0 24 24;" xml:space="preserve">
<style type="text/css">
	.st0{fill:#020202;}
</style>
<g id="Icons">
	<g>
		<path class="st0" d="M23.2,18.3L23.2,18.3c-0.6-0.6-1.2-1-1.8-1.3c-0.1-0.1-0.3-0.2-0.4-0.2c-0.4-0.2-0.7-0.4-1.2-0.7
			c-0.5-0.2-0.8-0.5-1-1c-0.2-0.5-0.2-0.6-0.3-1l0.2-0.2c0.1-0.2,0.3-1,0.4-1.4c0.2-0.1,0.4-0.3,0.4-0.6v-0.1c0.1-0.3,0.1-0.6,0.2-1
			v-0.1c0-0.2,0.1-0.7-0.1-0.9c0-0.2-0.1-0.2-0.2-0.2c0-0.2,0-0.6,0-1.2l0.2-0.2c0.1-0.1,0.1-0.2,0.1-0.2l-0.1-0.9
			c0-0.1-0.4-2.1-2.3-2.6c-1.6-0.4-2.7,0.3-3,0.6c-0.4,0-1,0.3-1.3,1.4c-0.1,0.8,0,1.7,0,1.7c0,0.7,0,1.1,0.1,1.3
			c-0.1,0-0.1,0.1-0.2,0.2c-0.3,0.2-0.2,0.7-0.2,0.9c0.1,0.4,0.1,0.7,0.2,1.1c0.1,0.2,0.2,0.5,0.5,0.7c0.1,0.4,0.1,1.2,0.4,1.4
			l0.2,0.2c0,0.5-0.1,0.5-0.2,1.1c-0.2,0.5-0.4,0.7-0.9,0.9c-0.1,0-0.1,0.1-0.1,0.1l-0.2,0.1c-0.1,0.1-0.1,0.2-0.1,0.2
			s0.1,0.2,0.1,0.2c0.7,0.4,2.1,1.4,2.4,3.1c0,0.2,0.1,0.2,0.2,0.2h8.4c0.1,0,0.1,0,0.2-0.1s0.1-0.2,0.1-0.2
			C23.8,19.6,23.7,19,23.2,18.3z"/>
		<path class="st0" d="M14.5,19.7c-0.1-0.2-0.2-0.9-0.7-1.6l-0.1-0.1c-0.4-0.5-1-0.8-1.6-1.2l-0.3-0.2c-0.1,0-0.1-0.1-0.1-0.1
			s-0.1-0.1-0.1-0.1c-0.2-0.1-0.4-0.2-0.6-0.3L10.6,16c-0.1-0.1-0.1-0.1-0.2-0.2c-0.4-0.2-0.8-0.4-1-0.8c-0.1-0.4-0.1-0.9-0.2-1.3
			h0.9c0.1,0,0.2-0.1,0.2-0.2s0-0.2,0-0.3l0,0c1.1-0.2,1.1-0.4,1.1-0.6s-0.1-0.3-0.2-0.5l0,0l-0.1-0.1c0-0.1-0.1-0.2-0.1-0.1
			c0-0.3,0.1-0.6,0.2-0.8s0.1-0.4,0.1-0.7c0.1-0.2,0.1-0.6,0.1-0.8c0-0.5-0.1-1.1-0.2-1.7c-0.1-0.7-0.4-1.2-0.6-1.7
			C10.4,5.5,10,5,9.6,4.7C9.2,4.3,8.7,4,8.2,3.9C7.6,3.8,7,3.9,6.4,4.2c-0.3,0-0.6,0.1-0.9,0.2C5,4.7,4.5,5.2,4,5.9
			C3.6,6.6,3.3,7.3,3.3,8.2c-0.1,0.9-0.1,1.7,0.1,2.5c0.1,0.2,0.1,0.3,0.1,0.5c0,0.1,0.1,0.2,0.1,0.3v0.1c0,0.1,0.1,0.2,0.1,0.3
			c0,0-0.1,0.1-0.1,0.1c0,0.1-0.1,0.2-0.1,0.2c-0.1,0.1-0.1,0.2-0.1,0.4c0,0.2,0,0.3,1.1,0.6l0,0c-0.1,0.1-0.1,0.2,0,0.3
			c0,0.2,0.1,0.2,0.1,0.2h0.9c0,0.5-0.1,0.9-0.2,1.3c-0.1,0.4-0.6,0.7-1,0.8C4.1,16,4,16,3.9,16.1c-0.4,0.2-0.7,0.4-1,0.6
			c-0.1,0.1-0.3,0.2-0.4,0.2c-0.5,0.3-1.2,0.7-1.6,1.2l-0.1,0.1c-0.4,0.6-0.6,1.2-0.7,1.5c0,0.1,0,0.2,0.1,0.2s0.1,0.1,0.2,0.1H9
			h5.3l0,0h0.1l0,0c0,0,0,0,0.1,0c0,0,0,0,0.1,0l0,0c0,0,0,0,0-0.1c0,0,0,0,0-0.1C14.5,19.9,14.5,19.9,14.5,19.7
			C14.5,19.8,14.5,19.8,14.5,19.7C14.5,19.8,14.5,19.8,14.5,19.7L14.5,19.7z"/>
	</g>
</g>
</svg>
